<svg width="182" height="54" viewBox="0 0 182 54" fill="black" xmlns="http://www.w3.org/2000/svg">
<path d="M175.525 53.5H6.37539C3.13825 53.5 0.5 50.8524 0.5 47.6104V6.3801C0.5 3.13784 3.13722 0.5 6.37539 0.5H175.525C178.772 0.5 181.5 3.14793 181.5 6.3801V47.6104C181.5 50.8423 178.771 53.5 175.525 53.5Z" stroke="white"/>
<path d="M40.6728 26.7079C40.6336 22.3568 44.2354 20.24 44.4001 20.1415C42.3603 17.1674 39.1986 16.7611 38.0875 16.7287C35.4321 16.4492 32.8563 18.3176 31.5036 18.3176C30.1239 18.3176 28.0408 16.7557 25.7958 16.8016C22.9068 16.8461 20.2041 18.5188 18.7218 21.1162C15.6627 26.4122 17.9442 34.195 20.875 38.4758C22.3411 40.5724 24.0543 42.9133 26.2966 42.8309C28.4904 42.7405 29.3098 41.4323 31.9572 41.4323C34.5802 41.4323 35.3497 42.8309 37.6366 42.7783C39.991 42.7405 41.4733 40.6723 42.8881 38.5568C44.5824 36.1538 45.2628 33.7873 45.2898 33.6658C45.2344 33.6469 40.7173 31.9229 40.6728 26.7079Z" fill="white"/>
<path d="M36.3525 13.9127C37.5324 12.4372 38.3397 10.4297 38.1156 8.39258C36.4079 8.46818 34.2722 9.57383 33.0423 11.017C31.9542 12.2887 30.9822 14.3731 31.2333 16.3333C33.1517 16.4764 35.1213 15.3653 36.3525 13.9127Z" fill="white"/>
<path d="M72.4207 42.5303H69.3548L67.6754 37.2531H61.838L60.2383 42.5303H57.2534L63.0368 24.5645H66.6089L72.4207 42.5303ZM67.1692 35.0391L65.6504 30.3479C65.4898 29.8686 65.1887 28.74 64.7446 26.9634H64.6906C64.5137 27.7275 64.2289 28.8561 63.8374 30.3479L62.3456 35.0391H67.1692Z" fill="white"/>
<path d="M87.2937 35.8925C87.2937 38.0957 86.6984 39.8372 85.5077 41.1157C84.4412 42.2537 83.1168 42.8221 81.536 42.8221C79.8296 42.8221 78.6038 42.2092 77.8572 40.9834H77.8032V47.8076H74.925V33.8392C74.925 32.4541 74.8886 31.0325 74.8184 29.5745H77.3496L77.5103 31.6279H77.5643C78.5241 30.0808 79.9808 29.3086 81.9356 29.3086C83.4638 29.3086 84.7395 29.912 85.7601 31.1203C86.7834 32.3299 87.2937 33.9202 87.2937 35.8925ZM84.3615 35.9978C84.3615 34.7369 84.078 33.6974 83.5083 32.8793C82.886 32.0261 82.0503 31.5995 81.0027 31.5995C80.2926 31.5995 79.6473 31.8371 79.0709 32.3056C78.4931 32.7781 78.1151 33.395 77.9382 34.1591C77.8491 34.5155 77.8046 34.8071 77.8046 35.0366V37.1966C77.8046 38.1389 78.0935 38.9341 78.6713 39.5834C79.2491 40.2328 79.9997 40.5568 80.9231 40.5568C82.0071 40.5568 82.8509 40.1383 83.4543 39.304C84.0591 38.4683 84.3615 37.3667 84.3615 35.9978Z" fill="white"/>
<path d="M102.194 35.8925C102.194 38.0957 101.598 39.8372 100.406 41.1157C99.3412 42.2537 98.0168 42.8221 96.436 42.8221C94.7296 42.8221 93.5038 42.2092 92.7586 40.9834H92.7046V47.8076H89.8264V33.8392C89.8264 32.4541 89.7899 31.0325 89.7197 29.5745H92.251L92.4116 31.6279H92.4656C93.4241 30.0808 94.8808 29.3086 96.8369 29.3086C98.3638 29.3086 99.6395 29.912 100.663 31.1203C101.682 32.3299 102.194 33.9202 102.194 35.8925ZM99.2615 35.9978C99.2615 34.7369 98.9767 33.6974 98.407 32.8793C97.7846 32.0261 96.9517 31.5995 95.9027 31.5995C95.1913 31.5995 94.5473 31.8371 93.9695 32.3056C93.3917 32.7781 93.0151 33.395 92.8382 34.1591C92.7505 34.5155 92.7046 34.8071 92.7046 35.0366V37.1966C92.7046 38.1389 92.9935 38.9341 93.5686 39.5834C94.1464 40.2314 94.897 40.5568 95.8231 40.5568C96.9071 40.5568 97.7509 40.1383 98.3543 39.304C98.9591 38.4683 99.2615 37.3667 99.2615 35.9978Z" fill="white"/>
<path d="M118.853 37.4916C118.853 39.0198 118.322 40.2632 117.257 41.223C116.086 42.272 114.457 42.7958 112.363 42.7958C110.43 42.7958 108.88 42.4232 107.707 41.6766L108.374 39.2777C109.638 40.0418 111.024 40.4252 112.535 40.4252C113.619 40.4252 114.462 40.1795 115.069 39.6908C115.672 39.2021 115.973 38.546 115.973 37.7279C115.973 36.9989 115.725 36.3846 115.227 35.8865C114.731 35.3883 113.904 34.9253 112.748 34.4973C109.602 33.3242 108.031 31.6056 108.031 29.3457C108.031 27.8688 108.582 26.6579 109.685 25.7156C110.784 24.7719 112.25 24.3008 114.083 24.3008C115.718 24.3008 117.076 24.5856 118.16 25.154L117.441 27.5003C116.428 26.9495 115.283 26.6741 114.002 26.6741C112.99 26.6741 112.198 26.9238 111.631 27.4206C111.152 27.8648 110.912 28.4061 110.912 29.0474C110.912 29.7575 111.186 30.3447 111.737 30.8064C112.216 31.233 113.087 31.6947 114.35 32.1929C115.896 32.8152 117.031 33.5429 117.762 34.3772C118.489 35.2088 118.853 36.2496 118.853 37.4916Z" fill="white"/>
<path d="M128.369 31.7355H125.196V38.0252C125.196 39.6249 125.755 40.4241 126.876 40.4241C127.39 40.4241 127.817 40.3796 128.154 40.2905L128.234 42.4761C127.667 42.6881 126.92 42.7947 125.996 42.7947C124.859 42.7947 123.971 42.4478 123.329 41.7552C122.691 41.0613 122.369 39.8976 122.369 38.2628V31.7328H120.479V29.5728H122.369V27.2009L125.196 26.3477V29.5728H128.369V31.7355Z" fill="white"/>
<path d="M142.683 35.9458C142.683 37.937 142.113 39.5719 140.976 40.8503C139.784 42.1666 138.202 42.8227 136.23 42.8227C134.329 42.8227 132.816 42.1922 131.687 40.9313C130.558 39.6704 129.994 38.0788 129.994 36.1604C129.994 34.153 130.575 32.5087 131.74 31.2302C132.902 29.9504 134.471 29.3105 136.443 29.3105C138.344 29.3105 139.873 29.941 141.028 31.2032C142.132 32.4277 142.683 34.0085 142.683 35.9458ZM139.697 36.0389C139.697 34.8442 139.441 33.8195 138.924 32.965C138.321 31.9309 137.458 31.4152 136.34 31.4152C135.184 31.4152 134.305 31.9322 133.701 32.965C133.184 33.8209 132.929 34.8617 132.929 36.0929C132.929 37.2877 133.184 38.3123 133.701 39.1655C134.324 40.1996 135.193 40.7153 136.315 40.7153C137.414 40.7153 138.276 40.1888 138.899 39.1385C139.429 38.2678 139.697 37.2323 139.697 36.0389Z" fill="white"/>
<path d="M152.038 32.1068C151.753 32.0541 151.45 32.0271 151.131 32.0271C150.119 32.0271 149.336 32.4092 148.785 33.1746C148.306 33.8496 148.065 34.7028 148.065 35.7329V42.5301H145.188L145.215 33.6552C145.215 32.1621 145.179 30.8027 145.107 29.5769H147.614L147.72 32.0555H147.799C148.103 31.2036 148.582 30.5178 149.238 30.0035C149.88 29.5404 150.572 29.3096 151.319 29.3096C151.585 29.3096 151.825 29.3285 152.038 29.3622V32.1068Z" fill="white"/>
<path d="M164.91 35.4398C164.91 35.9555 164.877 36.3902 164.805 36.7453H156.17C156.204 38.0251 156.621 39.0038 157.423 39.6788C158.151 40.2823 159.092 40.5847 160.247 40.5847C161.526 40.5847 162.692 40.3808 163.741 39.9718L164.192 41.9698C162.966 42.5044 161.519 42.7703 159.849 42.7703C157.84 42.7703 156.264 42.179 155.116 40.9978C153.971 39.8165 153.397 38.2303 153.397 36.2404C153.397 34.2869 153.931 32.6602 154.999 31.3628C156.116 29.9777 157.627 29.2852 159.528 29.2852C161.395 29.2852 162.808 29.9777 163.768 31.3628C164.528 32.4631 164.91 33.8239 164.91 35.4398ZM162.166 34.6933C162.185 33.8401 161.997 33.103 161.607 32.4806C161.109 31.6801 160.343 31.2805 159.313 31.2805C158.372 31.2805 157.607 31.6706 157.022 32.4536C156.543 33.076 156.258 33.8225 156.17 34.6919H162.166V34.6933Z" fill="white"/>
<path d="M66.2178 13.5122C66.2178 15.1012 65.7412 16.2973 64.7895 17.1005C63.9079 17.8417 62.6551 18.2129 61.0324 18.2129C60.2278 18.2129 59.5393 18.1778 58.9629 18.1076V9.42579C59.7148 9.30429 60.5248 9.24219 61.3996 9.24219C62.9454 9.24219 64.1104 9.57834 64.8961 10.2506C65.7763 11.0107 66.2178 12.0974 66.2178 13.5122ZM64.726 13.5514C64.726 12.5213 64.4533 11.7316 63.9079 11.1808C63.3625 10.6313 62.566 10.3559 61.5171 10.3559C61.0716 10.3559 60.6922 10.3856 60.3777 10.4477V17.0479C60.5518 17.0749 60.8704 17.087 61.3335 17.087C62.4162 17.087 63.2518 16.786 63.8404 16.1839C64.429 15.5818 64.726 14.7043 64.726 13.5514Z" fill="white"/>
<path d="M74.1275 14.8995C74.1275 15.8783 73.848 16.6802 73.2891 17.3093C72.7032 17.9559 71.927 18.2786 70.9577 18.2786C70.0235 18.2786 69.2796 17.9694 68.7248 17.3484C68.1713 16.7288 67.8945 15.9471 67.8945 15.0048C67.8945 14.0193 68.1794 13.2107 68.7518 12.5829C69.3242 11.9552 70.0937 11.6406 71.063 11.6406C71.9972 11.6406 72.7478 11.9498 73.3161 12.5694C73.8561 13.1715 74.1275 13.9491 74.1275 14.8995ZM72.66 14.9454C72.66 14.3582 72.5331 13.8546 72.2807 13.4348C71.9837 12.9272 71.5611 12.6734 71.0117 12.6734C70.4433 12.6734 70.0113 12.9272 69.7143 13.4348C69.4605 13.8546 69.335 14.3663 69.335 14.9711C69.335 15.5583 69.4619 16.0619 69.7143 16.4817C70.0208 16.9893 70.4474 17.2431 70.9982 17.2431C71.5382 17.2431 71.9621 16.9853 72.2672 16.4682C72.5291 16.0403 72.66 15.5327 72.66 14.9454Z" fill="white"/>
<path d="M84.7332 11.7705L82.7419 18.1344H81.4459L80.6211 15.371C80.4118 14.6811 80.2417 13.9953 80.1094 13.3149H80.0838C79.9609 14.0142 79.7908 14.6987 79.5721 15.371L78.696 18.1344H77.3851L75.5127 11.7705H76.9666L77.6862 14.7959C77.8603 15.5114 78.0034 16.1931 78.1182 16.8384H78.1438C78.2491 16.3065 78.4233 15.6288 78.669 14.8094L79.5721 11.7719H80.725L81.5904 14.7446C81.7996 15.4695 81.9697 16.1675 82.1007 16.8398H82.1398C82.2357 16.185 82.3801 15.4871 82.5718 14.7446L83.344 11.7719H84.7332V11.7705Z" fill="white"/>
<path d="M92.0675 18.1343H90.6527V14.4893C90.6527 13.3661 90.2261 12.8045 89.3702 12.8045C88.9503 12.8045 88.6115 12.9584 88.3482 13.2675C88.0877 13.5767 87.9554 13.9412 87.9554 14.3583V18.1329H86.5406V13.5888C86.5406 13.0299 86.523 12.4238 86.4893 11.7677H87.7326L87.7988 12.7626H87.8379C88.0026 12.4535 88.2483 12.1983 88.571 11.9945C88.9544 11.7569 89.3837 11.6367 89.8535 11.6367C90.4475 11.6367 90.9416 11.8284 91.3344 12.2132C91.8231 12.6843 92.0675 13.3877 92.0675 14.3219V18.1343Z" fill="white"/>
<path d="M95.9691 18.1345H94.5557V8.85059H95.9691V18.1345Z" fill="white"/>
<path d="M104.299 14.8995C104.299 15.8783 104.019 16.6802 103.461 17.3093C102.875 17.9559 102.097 18.2786 101.129 18.2786C100.194 18.2786 99.4497 17.9694 98.8962 17.3484C98.3427 16.7288 98.0659 15.9471 98.0659 15.0048C98.0659 14.0193 98.3508 13.2107 98.9232 12.5829C99.4956 11.9552 100.265 11.6406 101.233 11.6406C102.169 11.6406 102.918 11.9498 103.488 12.5694C104.028 13.1715 104.299 13.9491 104.299 14.8995ZM102.83 14.9454C102.83 14.3582 102.703 13.8546 102.451 13.4348C102.155 12.9272 101.731 12.6734 101.183 12.6734C100.613 12.6734 100.181 12.9272 99.8857 13.4348C99.6319 13.8546 99.5064 14.3663 99.5064 14.9711C99.5064 15.5583 99.6333 16.0619 99.8857 16.4817C100.192 16.9893 100.619 17.2431 101.17 17.2431C101.71 17.2431 102.132 16.9853 102.437 16.4682C102.7 16.0403 102.83 15.5327 102.83 14.9454Z" fill="white"/>
<path d="M111.146 18.1341H109.876L109.77 17.4011H109.731C109.296 17.9856 108.677 18.2786 107.872 18.2786C107.271 18.2786 106.785 18.0855 106.42 17.7021C106.087 17.3538 105.921 16.9205 105.921 16.4061C105.921 15.6285 106.245 15.0359 106.897 14.6255C107.548 14.2151 108.463 14.0139 109.642 14.0234V13.9046C109.642 13.0662 109.202 12.6477 108.32 12.6477C107.693 12.6477 107.139 12.8057 106.661 13.1189L106.374 12.1901C106.965 11.8242 107.695 11.6406 108.557 11.6406C110.22 11.6406 111.054 12.5181 111.054 14.2731V16.6167C111.054 17.2526 111.085 17.7588 111.146 18.1341ZM109.677 15.9471V14.9657C108.116 14.9387 107.336 15.3666 107.336 16.2482C107.336 16.5803 107.425 16.8287 107.608 16.9947C107.79 17.1608 108.022 17.2431 108.299 17.2431C108.609 17.2431 108.899 17.1446 109.164 16.9488C109.43 16.7517 109.593 16.502 109.654 16.1955C109.669 16.1267 109.677 16.043 109.677 15.9471Z" fill="white"/>
<path d="M119.185 18.1345H117.929L117.863 17.1126H117.824C117.423 17.8902 116.74 18.279 115.78 18.279C115.013 18.279 114.375 17.9779 113.869 17.3758C113.362 16.7737 113.11 15.9921 113.11 15.0322C113.11 14.0022 113.384 13.1679 113.935 12.5307C114.468 11.9367 115.121 11.6397 115.899 11.6397C116.754 11.6397 117.352 11.9272 117.692 12.5037H117.719V8.85059H119.135V16.42C119.135 17.0397 119.151 17.6107 119.185 18.1345ZM117.719 15.4507V14.3896C117.719 14.206 117.705 14.0575 117.68 13.9441C117.6 13.6039 117.429 13.3177 117.168 13.0869C116.905 12.856 116.587 12.7399 116.222 12.7399C115.694 12.7399 115.281 12.9492 114.977 13.369C114.676 13.7889 114.523 14.3248 114.523 14.9796C114.523 15.6087 114.668 16.119 114.958 16.5118C115.264 16.9303 115.678 17.1396 116.195 17.1396C116.659 17.1396 117.03 16.9654 117.312 16.6158C117.585 16.2931 117.719 15.9043 117.719 15.4507Z" fill="white"/>
<path d="M131.285 14.8995C131.285 15.8783 131.006 16.6802 130.447 17.3093C129.861 17.9559 129.086 18.2786 128.115 18.2786C127.183 18.2786 126.439 17.9694 125.883 17.3484C125.329 16.7288 125.052 15.9471 125.052 15.0048C125.052 14.0193 125.337 13.2107 125.909 12.5829C126.482 11.9552 127.251 11.6406 128.222 11.6406C129.155 11.6406 129.907 11.9498 130.474 12.5694C131.014 13.1715 131.285 13.9491 131.285 14.8995ZM129.819 14.9454C129.819 14.3582 129.692 13.8546 129.44 13.4348C129.141 12.9272 128.72 12.6734 128.169 12.6734C127.602 12.6734 127.17 12.9272 126.872 13.4348C126.618 13.8546 126.493 14.3663 126.493 14.9711C126.493 15.5583 126.62 16.0619 126.872 16.4817C127.178 16.9893 127.605 17.2431 128.156 17.2431C128.696 17.2431 129.121 16.9853 129.426 16.4682C129.687 16.0403 129.819 15.5327 129.819 14.9454Z" fill="white"/>
<path d="M138.892 18.1343H137.479V14.4893C137.479 13.3661 137.052 12.8045 136.195 12.8045C135.775 12.8045 135.436 12.9584 135.174 13.2675C134.912 13.5767 134.782 13.9412 134.782 14.3583V18.1329H133.365V13.5888C133.365 13.0299 133.349 12.4238 133.315 11.7677H134.557L134.624 12.7626H134.663C134.829 12.4535 135.074 12.1983 135.396 11.9945C135.781 11.7569 136.208 11.6367 136.68 11.6367C137.272 11.6367 137.766 11.8284 138.159 12.2132C138.649 12.6843 138.892 13.3877 138.892 14.3219V18.1343Z" fill="white"/>
<path d="M148.414 12.8302H146.856V15.9217C146.856 16.7074 147.133 17.1002 147.681 17.1002C147.935 17.1002 148.145 17.0786 148.311 17.0341L148.348 18.1073C148.068 18.2126 147.701 18.2653 147.249 18.2653C146.69 18.2653 146.255 18.0952 145.941 17.755C145.625 17.4148 145.468 16.8424 145.468 16.0391V12.8302H144.538V11.7704H145.468V10.604L146.855 10.1855V11.7691H148.413V12.8302H148.414Z" fill="white"/>
<path d="M155.904 18.1345H154.488V14.5165C154.488 13.3758 154.061 12.8047 153.207 12.8047C152.55 12.8047 152.102 13.1355 151.857 13.797C151.815 13.936 151.79 14.1061 151.79 14.3059V18.1332H150.377V8.85059H151.79V12.6859H151.817C152.263 11.988 152.901 11.6397 153.729 11.6397C154.315 11.6397 154.8 11.8314 155.184 12.2161C155.664 12.6954 155.904 13.4082 155.904 14.3505V18.1345Z" fill="white"/>
<path d="M163.63 14.6516C163.63 14.9054 163.611 15.1187 163.577 15.2928H159.334C159.353 15.9219 159.555 16.4012 159.948 16.7333C160.307 17.0303 160.77 17.1788 161.337 17.1788C161.965 17.1788 162.537 17.0789 163.053 16.8777L163.274 17.8605C162.671 18.1224 161.961 18.2534 161.139 18.2534C160.153 18.2534 159.377 17.9631 158.815 17.3826C158.251 16.8021 157.972 16.0232 157.972 15.0458C157.972 14.0859 158.232 13.2867 158.757 12.6495C159.305 11.9691 160.047 11.6289 160.982 11.6289C161.897 11.6289 162.593 11.9691 163.063 12.6495C163.442 13.1895 163.63 13.8578 163.63 14.6516ZM162.28 14.2857C162.29 13.8659 162.197 13.5041 162.005 13.199C161.76 12.8061 161.386 12.609 160.88 12.609C160.418 12.609 160.041 12.8007 159.754 13.1855C159.519 13.4919 159.38 13.8578 159.334 14.2857H162.28Z" fill="white"/>
</svg>
