<svg width="182" height="54" viewBox="0 0 182 54" fill="black" xmlns="http://www.w3.org/2000/svg">
    <path d="M6.74074 53.3808H175.259C178.611 53.3808 181.374 50.6265 181.374 47.25V6.75C181.374 3.37351 178.611 0.619209 175.259 0.619209H6.74074C3.38872 0.619209 0.626495 3.37351 0.626495 6.75V47.25C0.626495 50.6265 3.38872 53.3808 6.74074 53.3808Z" stroke="white"/>
    <path d="M92.2024 29.5936C89.024 29.5936 86.4275 31.9844 86.4275 35.2829C86.4275 38.5548 89.024 40.9706 92.2024 40.9706C95.3875 40.9706 97.9841 38.5548 97.9841 35.2829C97.9841 31.9844 95.3875 29.5936 92.2024 29.5936ZM92.2024 38.7303C90.4584 38.7303 88.958 37.3076 88.958 35.2829C88.958 33.2316 90.4584 31.8339 92.2024 31.8339C93.9463 31.8339 95.4535 33.2316 95.4535 35.2829C95.4535 37.3076 93.9463 38.7303 92.2024 38.7303ZM79.6021 29.5936C76.4169 29.5936 73.8272 31.9844 73.8272 35.2829C73.8272 38.5548 76.4169 40.9706 79.6021 40.9706C82.7856 40.9706 85.377 38.5548 85.377 35.2829C85.377 31.9844 82.7856 29.5936 79.6021 29.5936ZM79.6021 38.7303C77.8564 38.7303 76.351 37.3076 76.351 35.2829C76.351 33.2316 77.8564 31.8339 79.6021 31.8339C81.3461 31.8339 82.8465 33.2316 82.8465 35.2829C82.8465 37.3076 81.3461 38.7303 79.6021 38.7303ZM64.6083 31.3374V33.7549H70.4492C70.2784 35.1057 69.8216 36.0988 69.1214 36.791C68.2688 37.6269 66.941 38.5548 64.6083 38.5548C61.0138 38.5548 58.1991 35.6875 58.1991 32.1348C58.1991 28.5821 61.0138 25.7149 64.6083 25.7149C66.5519 25.7149 67.966 26.4656 69.0097 27.4386L70.7334 25.735C69.2736 24.3574 67.3317 23.2991 64.6083 23.2991C59.6792 23.2991 55.5366 27.2631 55.5366 32.1348C55.5366 37.0066 59.6792 40.9706 64.6083 40.9706C67.2725 40.9706 69.2736 40.1079 70.8467 38.4896C72.4588 36.8963 72.9611 34.656 72.9611 32.8471C72.9611 32.2853 72.9138 31.7687 72.8292 31.3374H64.6083ZM125.92 33.2115C125.444 31.9392 123.978 29.5936 120.991 29.5936C118.03 29.5936 115.566 31.8991 115.566 35.2829C115.566 38.4695 118.005 40.9706 121.275 40.9706C123.919 40.9706 125.444 39.3773 126.072 38.4494L124.11 37.1571C123.455 38.1034 122.564 38.7303 121.275 38.7303C119.994 38.7303 119.076 38.1502 118.487 37.0066L126.185 33.8585L125.92 33.2115ZM118.071 35.1057C118.005 32.9123 119.795 31.7888 121.077 31.7888C122.082 31.7888 122.934 32.2853 123.218 32.9958L118.071 35.1057ZM111.814 40.6245H114.345V23.906H111.814V40.6245ZM107.67 30.8609H107.585C107.017 30.1955 105.933 29.5936 104.559 29.5936C101.677 29.5936 99.0413 32.0947 99.0413 35.3013C99.0413 38.4896 101.677 40.9706 104.559 40.9706C105.933 40.9706 107.017 40.3637 107.585 39.6783H107.67V40.4941C107.67 42.6692 106.494 43.8378 104.598 43.8378C103.052 43.8378 102.093 42.7344 101.697 41.8065L99.4963 42.7143C100.131 44.2224 101.81 46.0781 104.598 46.0781C107.565 46.0781 110.068 44.3528 110.068 40.1547V29.9397H107.67V30.8609ZM104.776 38.7303C103.032 38.7303 101.572 37.2875 101.572 35.3013C101.572 33.2968 103.032 31.8339 104.776 31.8339C106.494 31.8339 107.849 33.2968 107.849 35.3013C107.849 37.2875 106.494 38.7303 104.776 38.7303ZM137.767 23.906H131.715V40.6245H134.239V34.2899H137.767C140.57 34.2899 143.319 32.2853 143.319 29.0971C143.319 25.9105 140.563 23.906 137.767 23.906ZM137.833 31.9643H134.239V26.2315H137.833C139.718 26.2315 140.793 27.778 140.793 29.0971C140.793 30.3911 139.718 31.9643 137.833 31.9643ZM153.434 29.5619C151.611 29.5619 149.715 30.3577 148.935 32.1215L151.174 33.0493C151.657 32.1215 152.543 31.8205 153.48 31.8205C154.789 31.8205 156.117 32.5979 156.137 33.9705V34.1461C155.681 33.8853 154.703 33.4991 153.5 33.4991C151.088 33.4991 148.63 34.8115 148.63 37.2608C148.63 39.501 150.606 40.9439 152.827 40.9439C154.525 40.9439 155.462 40.1865 156.051 39.3054H156.137V40.5978H158.575V34.1845C158.575 31.2203 156.335 29.5619 153.434 29.5619ZM153.13 38.7236C152.304 38.7236 151.154 38.319 151.154 37.3076C151.154 36.0136 152.589 35.517 153.83 35.517C154.941 35.517 155.462 35.7594 156.137 36.0788C155.939 37.6269 154.591 38.7236 153.13 38.7236ZM167.455 29.928L164.554 37.1755H164.468L161.469 29.928H158.747L163.254 40.0561L160.683 45.6919H163.32L170.263 29.928H167.455ZM144.706 40.6245H147.237V23.906H144.706V40.6245Z" fill="white"/>
    <path d="M64.1668 14.2016C64.1668 15.3184 63.8285 16.2129 63.162 16.88C62.3958 17.6707 61.3978 18.0686 60.1748 18.0686C59.0059 18.0686 58.0079 17.6641 57.1892 16.8666C56.3688 16.0574 55.9595 15.0643 55.9595 13.8756C55.9595 12.6869 56.3688 11.6939 57.1892 10.8914C58.0079 10.0872 59.0059 9.68262 60.1748 9.68262C60.7567 9.68262 61.3115 9.80132 61.8409 10.022C62.3687 10.2444 62.7984 10.5453 63.1096 10.9164L62.4025 11.622C61.8596 10.9883 61.1204 10.6757 60.1748 10.6757C59.3222 10.6757 58.583 10.9699 57.9555 11.5635C57.3347 12.1586 57.0234 12.9294 57.0234 13.8756C57.0234 14.8219 57.3347 15.5993 57.9555 16.1945C58.583 16.7813 59.3222 17.0823 60.1748 17.0823C61.0798 17.0823 61.8409 16.7813 62.4414 16.1878C62.8373 15.7949 63.0622 15.2532 63.1214 14.5611H60.1748V13.5948H64.1059C64.1533 13.8037 64.1668 14.006 64.1668 14.2016Z" fill="white" stroke="white" stroke-width="0.16" stroke-miterlimit="10"/>
    <path d="M70.4035 10.8509H66.7109V13.3922H70.0398V14.3585H66.7109V16.8997H70.4035V17.8844H65.6655V9.86621H70.4035V10.8509Z" fill="white" stroke="white" stroke-width="0.16" stroke-miterlimit="10"/>
    <path d="M74.805 17.8844H73.7596V10.8509H71.4946V9.86621H77.0716V10.8509H74.805V17.8844Z" fill="white" stroke="white" stroke-width="0.16" stroke-miterlimit="10"/>
    <path d="M81.1074 17.8844V9.86621H82.1511V17.8844H81.1074Z" fill="white" stroke="white" stroke-width="0.16" stroke-miterlimit="10"/>
    <path d="M86.7776 17.8844H85.7407V10.8509H83.4673V9.86621H89.051V10.8509H86.7776V17.8844Z" fill="white" stroke="white" stroke-width="0.16" stroke-miterlimit="10"/>
    <path d="M99.6096 16.8532C98.8095 17.6641 97.8183 18.0686 96.6359 18.0686C95.4467 18.0686 94.4555 17.6641 93.6554 16.8532C92.857 16.044 92.4595 15.0509 92.4595 13.8756C92.4595 12.7003 92.857 11.7072 93.6554 10.8981C94.4555 10.0872 95.4467 9.68262 96.6359 9.68262C97.8115 9.68262 98.8027 10.0872 99.6028 10.9047C100.408 11.7206 100.806 12.707 100.806 13.8756C100.806 15.0509 100.408 16.044 99.6096 16.8532ZM94.4284 16.1811C95.0306 16.7813 95.763 17.0823 96.6359 17.0823C97.5019 17.0823 98.2411 16.7813 98.8366 16.1811C99.4371 15.5809 99.7415 14.8102 99.7415 13.8756C99.7415 12.9411 99.4371 12.1703 98.8366 11.5701C98.2411 10.9699 97.5019 10.669 96.6359 10.669C95.763 10.669 95.0306 10.9699 94.4284 11.5701C93.8279 12.1703 93.5235 12.9411 93.5235 13.8756C93.5235 14.8102 93.8279 15.5809 94.4284 16.1811Z" fill="white" stroke="white" stroke-width="0.16" stroke-miterlimit="10"/>
    <path d="M102.272 17.8844V9.86621H103.541L107.485 16.1022H107.531L107.485 14.5608V9.86621H108.529V17.8844H107.44L103.309 11.3408H103.263L103.309 12.8889V17.8844H102.272Z" fill="white" stroke="white" stroke-width="0.16" stroke-miterlimit="10"/>
    <path d="M14.1207 10.5832C13.7232 10.9945 13.4932 11.6348 13.4932 12.4641V42.0426C13.4932 42.8718 13.7232 43.5121 14.1207 43.9234L14.2188 44.0137L30.9887 27.4456V27.0544L14.2188 10.4863L14.1207 10.5832Z" fill="url(#paint0_linear)"/>
    <path d="M36.5725 32.9707L30.9888 27.4452V27.054L36.5793 21.5285L36.7045 21.6004L43.3251 25.3236C45.2146 26.3802 45.2146 28.119 43.3251 29.1823L36.7045 32.8988L36.5725 32.9707Z" fill="url(#paint1_linear)"/>
    <path d="M36.7048 32.8988L30.9891 27.2496L14.1211 43.923C14.7487 44.5751 15.772 44.6536 16.9358 44.0016L36.7048 32.8988Z" fill="url(#paint2_linear)"/>
    <path d="M36.7048 21.6008L16.9358 10.498C15.772 9.85266 14.7487 9.93124 14.1211 10.5833L30.9891 27.25L36.7048 21.6008Z" fill="url(#paint3_linear)"/>
    <defs>
        <linearGradient id="paint0_linear" x1="29.4998" y1="42.3506" x2="7.0551" y2="19.6417" gradientUnits="userSpaceOnUse">
            <stop stop-color="#00A0FF"/>
            <stop offset="0.0066" stop-color="#00A1FF"/>
            <stop offset="0.2601" stop-color="#00BEFF"/>
            <stop offset="0.5122" stop-color="#00D2FF"/>
            <stop offset="0.7604" stop-color="#00DFFF"/>
            <stop offset="1" stop-color="#00E3FF"/>
        </linearGradient>
        <linearGradient id="paint1_linear" x1="45.7855" y1="27.2477" x2="13.0416" y2="27.2477" gradientUnits="userSpaceOnUse">
            <stop stop-color="#FFE000"/>
            <stop offset="0.4087" stop-color="#FFBD00"/>
            <stop offset="0.7754" stop-color="#FFA500"/>
            <stop offset="1" stop-color="#FF9C00"/>
        </linearGradient>
        <linearGradient id="paint2_linear" x1="33.5968" y1="24.1786" x2="3.15997" y2="-6.61647" gradientUnits="userSpaceOnUse">
            <stop stop-color="#FF3A44"/>
            <stop offset="1" stop-color="#C31162"/>
        </linearGradient>
        <linearGradient id="paint3_linear" x1="9.87507" y1="53.7641" x2="23.4665" y2="40.0128" gradientUnits="userSpaceOnUse">
            <stop stop-color="#32A071"/>
            <stop offset="0.0685" stop-color="#2DA771"/>
            <stop offset="0.4762" stop-color="#15CF74"/>
            <stop offset="0.8009" stop-color="#06E775"/>
            <stop offset="1" stop-color="#00F076"/>
        </linearGradient>
    </defs>
</svg>
